<?xml version="1.0" encoding="UTF-8"?>
<svg width="81px" height="67px" viewBox="0 0 81 67" version="1.1" xmlns="http://www.w3.org/2000/svg" xmlns:xlink="http://www.w3.org/1999/xlink">
    <!-- Generator: Sketch 52.6 (67491) - http://www.bohemiancoding.com/sketch -->
    <title>2305588-eye-idea-look-view-vision-watch</title>
    <desc>Created with Sketch.</desc>
    <g id="Page-1" stroke="none" stroke-width="1" fill="none" fill-rule="evenodd">
        <g id="04-Details-OttoLock" transform="translate(-1139.000000, -3802.000000)">
            <g id="2305588-eye-idea-look-view-vision-watch" transform="translate(1141.000000, 3804.000000)">
                <path d="M77,38.6415094 C77,38.6415094 59.7605556,62.9713487 38.5,62.9713487 C17.2394444,62.9713487 0,38.6415094 0,38.6415094 C0,38.6415094 17.2394444,14.3116702 38.5,14.3116702 C59.7605556,14.3116702 77,38.6415094 77,38.6415094 Z" id="Shape" stroke="#000000" stroke-width="3" stroke-linecap="round" stroke-linejoin="round"></path>
                <ellipse id="Oval" stroke="#000000" stroke-width="3" stroke-linecap="round" stroke-linejoin="round" cx="38.5" cy="38.6415094" rx="24.2407407" ry="24.3298393"></ellipse>
                <path d="M38.5,28.2655486 L37.6872222,28.2655486 C39.9327145,30.9485191 39.7614801,34.9093505 37.2928833,37.3870208 C34.8242864,39.8646912 30.87796,40.036555 28.2048148,37.7828092 C28.2048148,38.054731 28.2048148,38.3266527 28.2048148,38.5985744 C28.1875164,42.8030225 30.6999176,46.6023369 34.5668108,48.2193401 C38.433704,49.8363432 42.8906018,48.9513523 45.8527334,45.9783333 C48.8148649,43.0053142 49.6966148,38.5320348 48.0855333,34.6509285 C46.4744519,30.7698223 42.6890509,28.2481866 38.5,28.2655486 Z" id="Shape" fill="#000000"></path>
                <path d="M38.5,0 L38.5,7.15583508" id="Shape" stroke="#000000" stroke-width="3" stroke-linecap="round" stroke-linejoin="round"></path>
                <path d="M55.4827778,3.10563242 L52.8875926,9.77487072" id="Shape" stroke="#000000" stroke-width="3" stroke-linecap="round" stroke-linejoin="round"></path>
                <path d="M21.5172222,3.10563242 L24.1124074,9.77487072" id="Shape" stroke="#000000" stroke-width="3" stroke-linecap="round" stroke-linejoin="round"></path>
            </g>
        </g>
    </g>
</svg>