<?xml version="1.0" encoding="UTF-8"?>
<svg width="53px" height="53px" viewBox="0 0 53 53" version="1.1" xmlns="http://www.w3.org/2000/svg" xmlns:xlink="http://www.w3.org/1999/xlink">
    <!-- Generator: Sketch 52.6 (67491) - http://www.bohemiancoding.com/sketch -->
    <title>Group 4</title>
    <desc>Created with Sketch.</desc>
    <g id="Page-1" stroke="none" stroke-width="1" fill="none" fill-rule="evenodd">
        <g id="04-Details-OttoLock" transform="translate(-694.000000, -4749.000000)" fill="#000000">
            <g id="Group-4" transform="translate(694.000000, 4749.000000)">
                <path d="M27.5575,33.111 C27.1785,33.49 26.5615,33.49 26.1825,33.111 L19.8765,26.805 C19.4965,26.425 19.4965,25.81 19.8765,25.43 L20.2145,25.092 C20.5925,24.713 21.2095,24.713 21.5895,25.092 L27.8955,31.399 C28.2745,31.778 28.2745,32.395 27.8955,32.774 L27.5575,33.111 Z" id="Fill-1"></path>
                <path d="M24.7585,34.511 L10.9765,49.541 L9.2775,51.391 C8.7475,51.921 8.1475,52.32 7.4875,52.58 C6.9875,52.791 6.4775,52.91 5.9585,52.951 C5.7885,52.971 5.6185,52.981 5.4385,52.981 C4.0485,52.99 2.6575,52.461 1.5975,51.4 C-0.5325,49.271 -0.5325,45.83 1.5975,43.711 L3.4385,42.021 L18.4675,28.231 L24.7585,34.511 Z" id="Fill-2"></path>
                <path d="M52.9875,2.4 L50.3685,6.521 L48.0485,7.511 L27.2375,28.33 L24.6575,25.75 L45.4775,4.931 L46.4675,2.621 L50.5885,-7.10542736e-15 L50.8075,0.221 L47.7685,2.761 C47.2375,3.291 47.4775,4.431 48.0085,4.971 C48.5575,5.511 49.7275,5.83 50.2685,5.291 L52.7585,2.171 L52.9875,2.4 Z" id="Fill-3"></path>
            </g>
        </g>
    </g>
</svg>