<?xml version="1.0" encoding="UTF-8"?>
<svg width="63px" height="63px" viewBox="0 0 63 63" version="1.1" xmlns="http://www.w3.org/2000/svg" xmlns:xlink="http://www.w3.org/1999/xlink">
    <!-- Generator: Sketch 52.6 (67491) - http://www.bohemiancoding.com/sketch -->
    <title>Group 3</title>
    <desc>Created with Sketch.</desc>
    <defs>
        <polygon id="path-1" points="0.000220689655 0 62.5566897 0 62.5566897 62.5562483 0.000220689655 62.5562483"></polygon>
    </defs>
    <g id="Page-1" stroke="none" stroke-width="1" fill="none" fill-rule="evenodd">
        <g id="04-Details-OttoLock" transform="translate(-258.000000, -3804.000000)">
            <g id="Group-3" transform="translate(258.000000, 3804.000000)">
                <mask id="mask-2" fill="white">
                    <use xlink:href="#path-1"></use>
                </mask>
                <g id="Clip-2"></g>
                <path d="M53.3960828,9.16038621 C47.4882207,3.25252414 39.6338759,-0.00044137931 31.2785655,-0.00044137931 C22.9254621,-0.00044137931 15.0711172,3.25252414 9.16104828,9.16038621 C3.25318621,15.0704552 0.000220689655,22.9225931 0.000220689655,31.2779034 C0.000220689655,39.6332138 3.25318621,47.4875586 9.16104828,53.3954207 C15.0711172,59.3032828 22.9254621,62.5562483 31.2785655,62.5562483 C39.6338759,62.5562483 47.4882207,59.3032828 53.3960828,53.3954207 C59.3039448,47.4875586 62.5569103,39.6332138 62.5569103,31.2779034 C62.5569103,22.9225931 59.3061517,15.0682483 53.3960828,9.16038621 M31.5698759,59.6056276 C26.2027034,59.6056276 21.1709793,58.1270069 16.8763586,55.5581793 L17.4457379,50.9590069 C17.5803586,49.8621793 17.1720828,48.7653517 16.3533241,48.0238345 C16.3533241,48.0238345 12.7847724,44.7752828 12.751669,44.7289379 L9.15884138,39.1631448 C8.52546207,38.1810759 7.44628966,37.5940414 6.27222069,37.5940414 L3.69235862,37.5940414 C3.20904828,35.5239724 2.95084138,33.3634207 2.95084138,31.1476966 C2.95084138,30.9093517 2.95304828,30.6710069 2.95966897,30.4326621 L8.8278069,21.8853517 C9.08601379,21.5079724 9.41263448,21.1923862 9.79663448,20.9452138 L12.7980138,19.0075586 C14.5789793,17.8599724 15.6427034,15.9179034 15.6427034,13.8103172 L15.6427034,7.52286897 C18.3505655,5.7088 21.3894621,4.34714483 24.6446345,3.53942069 L24.9668414,5.10190345 C24.9844966,5.19017931 24.9712552,5.28286897 24.9293241,5.36231724 L22.5878069,9.74962759 C22.4399448,10.0232828 22.2501517,10.742731 22.2501517,10.742731 C22.0603586,11.702731 22.3163586,12.6759724 22.9563586,13.4174897 C23.5654621,14.1236966 24.4393931,14.5231448 25.3729103,14.5231448 C25.4170483,14.5231448 26.7654621,14.5893517 27.791669,13.4152828 L32.9668414,7.40148966 C33.0087724,7.35293793 33.059531,7.31762759 33.1191172,7.29555862 L36.4382897,5.96921379 C36.9105655,5.78162759 37.3342897,5.47928276 37.667531,5.09748966 L38.9232552,3.64755862 C41.1279448,4.23017931 43.2311172,5.0665931 45.1952552,6.12811034 C45.1621517,6.20314483 43.5820138,12.6936276 43.5820138,12.6936276 C43.5776,12.7090759 43.5643586,12.7223172 43.5489103,12.7223172 L37.2791172,13.3645241 C36.6633931,13.4263172 36.0763586,13.6955586 35.6239448,14.1170759 L31.4573241,18.0254897 C31.4529103,18.0321103 31.4484966,18.0343172 31.439669,18.0365241 L28.0344276,18.9479724 C26.9221517,19.2459034 26.1100138,20.1728 25.9643586,21.3071448 C25.8164966,22.4436966 26.3660138,23.542731 27.3679448,24.1143172 C27.747531,24.3305931 28.1822897,24.4585931 28.6170483,24.482869 L39.9649103,25.1008 C39.9803586,25.1008 39.9936,25.1096276 40.0002207,25.1250759 L40.3753931,25.9592828 C40.3820138,25.974731 40.3776,25.9968 40.3599448,26.0078345 L36.3191172,28.8856276 C36.3102897,28.8922483 36.3014621,28.8944552 36.2926345,28.8944552 L30.179531,28.2323862 L25.7789793,26.4072828 C24.8542897,26.0254897 23.7817379,26.1579034 22.9806345,26.7581793 L18.4366345,30.1678345 C17.8429793,30.6136276 17.4523586,31.2624552 17.3420138,31.9973517 L16.5982897,36.918731 C16.5033931,37.5476966 16.6291862,38.2009379 16.9491862,38.7504552 L19.9086345,43.8263172 C20.3698759,44.6185931 21.1952552,45.1394207 22.1133241,45.218869 L27.3149793,45.6690759 C27.3282207,45.6712828 27.343669,45.6801103 27.3502897,45.6955586 L28.4890483,48.7366621 L29.6741517,54.1214897 C29.8418759,54.8872828 30.3296,55.5537655 31.0071172,55.9488 L33.5825655,57.4494897 C34.0283586,57.7076966 34.5227034,57.8356966 35.0126345,57.8356966 C35.7364966,57.8356966 36.4559448,57.5598345 36.9988414,57.0323862 L40.9734621,53.1570759 C41.4898759,52.6516966 41.7922207,51.9785931 41.8209103,51.2591448 L42.0791172,44.8194207 C42.0791172,44.8128 42.083531,44.8039724 42.0879448,44.7995586 L45.071669,40.2996966 C45.8352552,39.1521103 45.6520828,37.6337655 44.6413241,36.6936276 L42.8118069,34.9921103 C42.8007724,34.9810759 42.7963586,34.9700414 42.7985655,34.9545931 L43.0700138,33.3082483 C43.0722207,33.2950069 43.0722207,33.2861793 43.0942897,33.2773517 C43.1141517,33.2685241 43.1207724,33.2729379 43.1318069,33.2817655 L46.6451862,35.5328 C47.8192552,36.2875586 49.3971862,36.0646621 50.3152552,35.0163862 L51.6217379,33.5245241 C52.2286345,32.8293517 52.4581517,31.8803862 52.2286345,30.9843862 C52.0013241,30.0928 51.3480828,29.3645241 50.4807724,29.0401103 L50.3814621,29.0025931 C50.3704276,28.9981793 50.3616,28.9937655 50.3616,28.9937655 C50.3549793,28.9849379 50.3527724,28.9518345 50.3571862,28.9430069 C50.3571862,28.9430069 50.3638069,28.9385931 50.3770483,28.9297655 L52.4669793,27.8417655 C52.4824276,27.8351448 52.4978759,27.8373517 52.5111172,27.8439724 L54.1883586,29.0930759 C54.947531,29.6624552 55.9406345,29.8103172 56.8388414,29.494731 C57.7348414,29.1769379 58.4079448,28.4376276 58.6374621,27.5195586 L58.915531,26.3962483 C58.9221517,26.3808 58.9331862,26.3675586 58.9486345,26.3653517 L59.7629793,26.2086621 C60.047669,27.8174897 60.1977379,29.4704552 60.1977379,31.158731 C60.1867034,46.8431448 47.3513931,59.6056276 31.5698759,59.6056276" id="Fill-1" fill="#000000" mask="url(#mask-2)"></path>
            </g>
        </g>
    </g>
</svg>