<?xml version="1.0" encoding="UTF-8"?>
<svg width="64px" height="45px" viewBox="0 0 64 45" version="1.1" xmlns="http://www.w3.org/2000/svg" xmlns:xlink="http://www.w3.org/1999/xlink">
    <!-- Generator: Sketch 52.6 (67491) - http://www.bohemiancoding.com/sketch -->
    <title>Page 1</title>
    <desc>Created with Sketch.</desc>
    <g id="Page-1" stroke="none" stroke-width="1" fill="none" fill-rule="evenodd">
        <g id="04-Details-OttoLock" transform="translate(-886.000000, -3813.000000)" fill="#000000">
            <g id="Page-1" transform="translate(886.000000, 3813.000000)">
                <path d="M14.3472941,26.364 C14.5237609,26.71263 14.8796461,26.9323575 15.2708518,26.9323575 L23.4711341,26.9323575 L23.4711341,43.6521075 C23.4711341,44.09742 23.7564311,44.4929325 24.1828969,44.6306325 C24.2887755,44.6657925 24.3976056,44.683365 24.5064282,44.683365 C24.8299595,44.683365 25.1417224,44.53395 25.3388047,44.2644225 L43.2271812,20.0034225 C43.4565948,19.689945 43.4948292,19.27686 43.3183548,18.9282225 C43.1418805,18.5825175 42.7860028,18.36279 42.3947972,18.36279 L33.1479266,18.3569325 L34.7714184,1.1361825 C34.8155332,0.67329 34.5449487,0.2426325 34.1125948,0.0785325 C33.6772969,-0.0884625 33.1890372,0.055095 32.9096207,0.4271625 L14.4422325,25.2859125 C14.2098824,25.59939 14.1716405,26.0154075 14.3481148,26.3640375 L14.3472941,26.364 Z" id="Fill-1"></path>
                <path d="M19.4944,39.91125 C19.4944,39.1437 18.8679304,38.519625 18.0973176,38.519625 L3.05054118,38.519625 L3.05054118,11.519625 L20.0685176,11.519625 C20.8390776,11.519625 21.4656,10.8956025 21.4656,10.130925 C21.4656,9.363375 20.8391304,8.7393 20.0685176,8.7393 L1.65684706,8.7393 C0.886287059,8.7393 0.259764706,9.3633225 0.259764706,10.130925 L0.259764706,39.911175 C0.259764706,40.678725 0.886234353,41.3028 1.65684706,41.3028 L18.1010824,41.3028 C18.8716424,41.3028 19.4952282,40.6787775 19.4952282,39.911175 L19.4944,39.91125 Z" id="Fill-2"></path>
                <path d="M62.2938353,16.749 L55.6585412,16.749 L55.6585412,10.13085 C55.6585412,9.3633 55.0320715,8.739225 54.2614588,8.739225 L40.2966588,8.739225 C39.5260988,8.739225 38.9025129,9.3632475 38.9025129,10.13085 C38.9025129,10.8984 39.5260386,11.51955 40.2966588,11.51955 L52.8670118,11.51955 L52.8670118,18.123075 C52.8670118,18.1289325 52.8640678,18.1347975 52.8640678,18.140655 L52.8640678,31.898655 C52.8640678,31.9045125 52.8670118,31.91037 52.8670118,31.916235 L52.8670118,34.517835 C52.8670118,36.723885 51.0640941,38.51976 48.8493929,38.51976 L35.6819576,38.522685 C34.9113976,38.522685 34.2878118,39.1467075 34.2878118,39.91431 C34.2878118,40.6819125 34.9113449,41.305935 35.6819576,41.305935 L48.8463812,41.305935 C52.5993412,41.305935 55.6552282,38.26491 55.6552282,34.523685 L55.6552282,33.29616 L62.2905224,33.29616 C63.0610824,33.29616 63.6846682,32.6721375 63.6846682,31.904535 L63.6876122,18.140535 C63.6876122,17.372985 63.0611426,16.74891 62.2934664,16.74891 L62.2938353,16.749 Z M60.8967529,30.51 L55.6585412,30.51 L55.6556047,19.53225 L60.8938165,19.53225 L60.8967529,30.51 Z" id="Fill-3"></path>
            </g>
        </g>
    </g>
</svg>