<?xml version="1.0" encoding="UTF-8"?>
<svg width="119px" height="142px" viewBox="0 0 119 142" version="1.1" xmlns="http://www.w3.org/2000/svg" xmlns:xlink="http://www.w3.org/1999/xlink">
    <!-- Generator: Sketch 52.6 (67491) - http://www.bohemiancoding.com/sketch -->
    <title>Group 6</title>
    <desc>Created with Sketch.</desc>
    <defs>
        <polygon id="path-1" points="0.00166666667 4.16333333 118.108333 4.16333333 118.108333 145.833333 0.00166666667 145.833333"></polygon>
    </defs>
    <g id="Page-1" stroke="none" stroke-width="1" fill="none" fill-rule="evenodd">
        <g id="04-Details-OttoLock" transform="translate(-660.000000, -3437.000000)">
            <g id="Group-6" transform="translate(660.000000, 3433.000000)">
                <g id="Group-3" transform="translate(0.000000, 0.004167)">
                    <mask id="mask-2" fill="white">
                        <use xlink:href="#path-1"></use>
                    </mask>
                    <g id="Clip-2"></g>
                    <path d="M0.00166666667,36.1758333 C0.16,69.755 6.48083333,94.7633333 19.3016667,112.675833 C29.7183333,127.284167 43.0808333,135.721667 56.0683333,143.93 L59.0558333,145.834167 L62.0475,143.93 C75.0308333,135.721667 88.3933333,127.284167 98.8225,112.675833 C111.6475,94.755 117.964167,69.73 118.11,36.1758333 C96.9433333,28.5091667 77.0308333,17.7175 59.0558333,4.16333333 C41.0725,17.7175 21.1725,28.5091667 0.00166666667,36.1758333 M112.251667,40.1383333 C111.643333,70.4258333 105.689167,93.0508333 94.085,109.259167 C84.36,122.93 71.5016667,131.063333 59.0558333,138.905 C46.61,131.063333 33.7516667,122.925833 24.0225,109.288333 C12.4266667,93.0966667 6.48083333,70.4633333 5.85166667,40.1383333 C24.7683333,32.9425 42.6558333,23.28 59.0558333,11.4091667 C75.4475,23.28 93.335,32.9341667 112.251667,40.1383333" id="Fill-1" fill="#000000" mask="url(#mask-2)"></path>
                </g>
                <path d="M47.8733333,103.34125 C42.0025,103.26625 37.2733333,98.4870833 37.2691667,92.61625 L37.2691667,76.0329167 C37.2608333,72.0120833 39.5025,68.32875 43.0816667,66.49125 L43.0816667,55.94125 C43.0816667,45.91625 51.2108333,37.7870833 61.2316667,37.7870833 C71.2566667,37.7870833 79.3858333,45.91625 79.3858333,55.94125 L79.3858333,66.4745833 C82.9608333,68.31625 85.2025,71.9995833 85.1983333,76.01625 L85.1983333,92.61625 C85.19,95.4704167 84.0608333,98.20375 82.0316667,100.212083 C80.0108333,102.22875 77.2775,103.349583 74.4191667,103.34125 L47.8733333,103.34125 Z M66.9566667,84.54125 C66.9566667,92.2870833 55.3358333,92.2870833 55.3358333,84.54125 C55.3358333,76.7995833 66.9566667,76.7995833 66.9566667,84.54125 Z M73.4816667,65.3120833 L73.4816667,55.9454167 C73.4733333,49.14125 67.9483333,43.6204167 61.1525,43.61625 C54.3733333,43.6620833 48.8941667,49.1620833 48.8858333,55.9454167 L48.8858333,65.3120833 L73.4816667,65.3120833 Z" id="Fill-4" fill="#000000"></path>
            </g>
        </g>
    </g>
</svg>