<?xml version="1.0" encoding="UTF-8"?>
<svg width="44px" height="38px" viewBox="0 0 44 38" version="1.1" xmlns="http://www.w3.org/2000/svg" xmlns:xlink="http://www.w3.org/1999/xlink">
    <!-- Generator: Sketch 53.2 (72643) - https://sketchapp.com -->
    <title>upload-server-data-send-cloud</title>
    <desc>Created with Sketch.</desc>
    <g id="Page-1" stroke="none" stroke-width="1" fill="none" fill-rule="evenodd">
        <g id="04-Details-OttoAccess" transform="translate(-698.000000, -1627.000000)" fill="#EE1D36" fill-rule="nonzero">
            <g id="upload-server-data-send-cloud" transform="translate(698.000000, 1626.000000)">
                <path d="M43.2,23.592 C43.2,28.974 38.824,33.352 33.44,33.352 C33.438,33.352 33.436,33.352 33.436,33.352 L28.56,33.352 C27.898,33.352 27.36,32.814 27.36,32.152 C27.36,31.49 27.898,30.952 28.56,30.952 L33.438,30.952 L33.442,30.952 C37.5,30.95 40.8,27.65 40.8,23.592 C40.8,19.902 38.048,16.77 34.402,16.308 C34.07,16.266 33.772,16.088 33.578,15.816 C33.382,15.544 33.31,15.204 33.376,14.876 C33.516,14.184 33.586,13.534 33.586,12.89 C33.586,7.652 29.322,3.39 24.084,3.39 C19.558,3.39 15.644,6.6 14.776,11.024 C14.66,11.62 14.146,12.026 13.514,11.992 C13.244,11.972 12.972,11.952 12.702,11.952 C7.464,11.952 3.2,16.214 3.2,21.452 C3.2,26.688 7.462,30.95 12.698,30.952 C12.698,30.952 12.7,30.952 12.7,30.952 L15.44,30.952 C16.102,30.952 16.64,31.49 16.64,32.152 C16.64,32.814 16.102,33.352 15.44,33.352 L12.706,33.352 C12.704,33.352 12.702,33.352 12.702,33.352 C6.138,33.352 0.8,28.014 0.8,21.452 C0.8,14.902 6.12,9.57 12.668,9.55 C14.122,4.532 18.768,0.99 24.086,0.99 C30.648,0.99 35.986,6.328 35.986,12.89 C35.986,13.31 35.964,13.732 35.918,14.16 C40.144,15.258 43.2,19.116 43.2,23.592 Z M27.848,26.348 L22.848,21.348 C22.738,21.236 22.604,21.148 22.458,21.088 C22.166,20.966 21.836,20.966 21.542,21.088 C21.394,21.15 21.262,21.238 21.152,21.348 L16.152,26.348 C15.684,26.816 15.684,27.576 16.152,28.046 C16.62,28.516 17.378,28.514 17.848,28.046 L20.802,25.094 L20.802,37.81 C20.802,38.474 21.34,39.01 22.002,39.01 C22.664,39.01 23.202,38.472 23.202,37.81 L23.202,25.094 L26.156,28.046 C26.39,28.28 26.698,28.398 27.004,28.398 C27.31,28.398 27.618,28.28 27.852,28.046 C28.316,27.578 28.316,26.818 27.848,26.348 Z" id="Shape"></path>
            </g>
        </g>
    </g>
</svg>