<?xml version="1.0" encoding="UTF-8"?>
<svg width="40px" height="42px" viewBox="0 0 40 42" version="1.1" xmlns="http://www.w3.org/2000/svg" xmlns:xlink="http://www.w3.org/1999/xlink">
    <!-- Generator: Sketch 53.2 (72643) - https://sketchapp.com -->
    <title>calendar-cal-event-schedule-date</title>
    <desc>Created with Sketch.</desc>
    <g id="Page-1" stroke="none" stroke-width="1" fill="none" fill-rule="evenodd">
        <g id="04-Details-OttoAccess" transform="translate(-987.000000, -3901.000000)" fill="#EE1D36" fill-rule="nonzero">
            <g id="calendar-cal-event-schedule-date" transform="translate(987.000000, 3901.000000)">
                <path d="M33.544,3.528 L31.244,3.528 L31.244,2 C31.244,1.3372583 30.7067417,0.8 30.044,0.8 C29.3812583,0.8 28.844,1.3372583 28.844,2 L28.844,3.528 L11.156,3.528 L11.156,2 C11.156,1.3372583 10.6187417,0.8 9.956,0.8 C9.2932583,0.8 8.756,1.3372583 8.756,2 L8.756,3.528 L6.454,3.528 C3.35010246,3.53240876 0.835304756,6.04810109 0.832,9.152 L0.832,35.578 C0.83640628,38.6811179 3.35088211,41.1955937 6.454,41.2 L33.544,41.2 C36.6491352,41.1977939 39.1657939,38.6811352 39.168,35.576 L39.168,9.152 C39.1657939,6.04686484 36.6491352,3.53020614 33.544,3.528 Z M36.768,35.576 C36.7657961,37.3556523 35.3236523,38.7977961 33.544,38.8 L6.454,38.8 C4.67545222,38.7977961 3.2342039,37.3565478 3.232,35.578 L3.232,15.136 L36.77,15.136 L36.768,35.576 Z M36.768,12.736 L3.232,12.736 L3.232,9.152 C3.23310175,7.37267122 4.67467225,5.93020589 6.454,5.928 L8.756,5.928 L8.756,7.308 C8.756,7.9707417 9.2932583,8.508 9.956,8.508 C10.6187417,8.508 11.156,7.9707417 11.156,7.308 L11.156,5.928 L28.846,5.928 L28.846,7.308 C28.846,7.9707417 29.3832583,8.508 30.046,8.508 C30.7087417,8.508 31.246,7.9707417 31.246,7.308 L31.246,5.928 L33.546,5.928 C35.324873,5.93020123 36.7666949,7.37112875 36.77,9.15 L36.768,12.736 Z M7.63,22.442 C7.63,21.0612881 8.74928813,19.942 10.13,19.942 C11.5107119,19.942 12.63,21.0612881 12.63,22.442 C12.63,23.8227119 11.5107119,24.942 10.13,24.942 C8.74928813,24.942 7.63,23.8227119 7.63,22.442 L7.63,22.442 Z M17.5,22.442 C17.5,21.0612881 18.6192881,19.942 20,19.942 C21.3807119,19.942 22.5,21.0612881 22.5,22.442 C22.5,23.8227119 21.3807119,24.942 20,24.942 C18.6192881,24.942 17.5,23.8227119 17.5,22.442 L17.5,22.442 Z M27.37,22.442 C27.37,21.0612881 28.4892881,19.942 29.87,19.942 C31.2507119,19.942 32.37,21.0612881 32.37,22.442 C32.37,23.8227119 31.2507119,24.942 29.87,24.942 C28.4892881,24.942 27.37,23.8227119 27.37,22.442 L27.37,22.442 Z M7.63,30.6 C7.63,29.2192881 8.74928813,28.1 10.13,28.1 C11.5107119,28.1 12.63,29.2192881 12.63,30.6 C12.63,31.9807119 11.5107119,33.1 10.13,33.1 C8.74928813,33.1 7.63,31.9807119 7.63,30.6 L7.63,30.6 Z M17.5,30.6 C17.4983816,29.588482 18.1064598,28.6756643 19.0405165,28.2874512 C19.9745732,27.8992381 21.0505232,28.112139 21.7663478,28.8268183 C22.4821725,29.5414976 22.696796,30.6171053 22.310079,31.5517824 C21.9233621,32.4864596 21.0115193,33.0959987 20,33.096 C18.6208487,33.0960018 17.5022066,31.9791495 17.5,30.6 L17.5,30.6 Z M27.37,30.6 C27.37,29.2192881 28.4892881,28.1 29.87,28.1 C31.2507119,28.1 32.37,29.2192881 32.37,30.6 C32.37,31.9807119 31.2507119,33.1 29.87,33.1 C28.4892881,33.1 27.37,31.9807119 27.37,30.6 L27.37,30.6 Z" id="Shape"></path>
            </g>
        </g>
    </g>
</svg>