<?xml version="1.0" encoding="UTF-8"?>
<svg width="45px" height="44px" viewBox="0 0 45 44" version="1.1" xmlns="http://www.w3.org/2000/svg" xmlns:xlink="http://www.w3.org/1999/xlink">
    <!-- Generator: Sketch 53.2 (72643) - https://sketchapp.com -->
    <title>building-apartment-tower-office-city</title>
    <desc>Created with Sketch.</desc>
    <g id="Page-1" stroke="none" stroke-width="1" fill="none" fill-rule="evenodd">
        <g id="04-Details-OttoAccess" transform="translate(-698.000000, -1120.000000)" fill="#EE1D36" fill-rule="nonzero">
            <g id="building-apartment-tower-office-city" transform="translate(698.000000, 1120.000000)">
                <path d="M44.4123871,19.6774194 L44.4123871,42.6451613 C44.4123871,43.3305806 43.8570323,43.883871 43.1736774,43.883871 L1.88335484,43.883871 C1.2,43.883871 0.644645161,43.3285161 0.644645161,42.6451613 L0.644645161,5.48387097 C0.644645161,2.52335484 3.05187097,0.116129032 6.0123871,0.116129032 L26.6575484,0.116129032 C29.6180645,0.116129032 32.0252903,2.52541935 32.0252903,5.48387097 L32.0252903,14.3096774 L39.0446452,14.3096774 C42.0051613,14.3096774 44.4123871,16.7169032 44.4123871,19.6774194 Z M21.8141935,7.34193548 C21.1308387,7.34193548 20.5754839,7.89729032 20.5754839,8.58064516 L20.5754839,13.3125161 C20.5754839,13.9979355 21.1308387,14.5512258 21.8141935,14.5512258 C22.4975484,14.5512258 23.0529032,13.995871 23.0529032,13.3125161 L23.0529032,8.58064516 C23.0529032,7.89522581 22.4975484,7.34193548 21.8141935,7.34193548 Z M10.859871,18.3953548 C10.1765161,18.3953548 9.62116129,18.9507097 9.62116129,19.6340645 L9.62116129,24.3659355 C9.62116129,25.0513548 10.1765161,25.6046452 10.859871,25.6046452 C11.5432258,25.6046452 12.0985806,25.0492903 12.0985806,24.3659355 L12.0985806,19.6340645 C12.0965161,18.9486452 11.5432258,18.3953548 10.859871,18.3953548 Z M12.0965161,8.58064516 C12.0965161,7.89522581 11.5411613,7.34193548 10.8578065,7.34193548 C10.1744516,7.34193548 9.61909677,7.89522581 9.61909677,8.58064516 L9.61909677,13.3125161 C9.61909677,13.995871 10.1744516,14.5512258 10.8578065,14.5512258 C11.5411613,14.5512258 12.0965161,13.9979355 12.0965161,13.3125161 L12.0965161,8.58064516 Z M21.8141935,18.3953548 C21.1308387,18.3953548 20.5754839,18.9507097 20.5754839,19.6340645 L20.5754839,24.3659355 C20.5754839,25.0513548 21.1308387,25.6046452 21.8141935,25.6046452 C22.4975484,25.6046452 23.0529032,25.0492903 23.0529032,24.3659355 L23.0529032,19.6340645 C23.0529032,18.9486452 22.4975484,18.3953548 21.8141935,18.3953548 Z M10.859871,29.4487742 C10.1765161,29.4487742 9.62116129,30.004129 9.62116129,30.6874839 L9.62116129,35.4193548 C9.62116129,36.1047742 10.1765161,36.6580645 10.859871,36.6580645 C11.5432258,36.6580645 12.0985806,36.1027097 12.0985806,35.4193548 L12.0985806,30.6874839 C12.0965161,30.004129 11.5432258,29.4487742 10.859871,29.4487742 Z M21.8141935,29.4487742 C21.1308387,29.4487742 20.5754839,30.004129 20.5754839,30.6874839 L20.5754839,35.4193548 C20.5754839,36.1047742 21.1308387,36.6580645 21.8141935,36.6580645 C22.4975484,36.6580645 23.0529032,36.1027097 23.0529032,35.4193548 L23.0529032,30.6874839 C23.0529032,30.004129 22.4975484,29.4487742 21.8141935,29.4487742 Z M41.9370323,19.6774194 C41.9370323,18.0836129 40.6384516,16.7870968 39.0467097,16.7870968 L32.0273548,16.7870968 L32.0273548,41.4064516 L41.9390968,41.4064516 L41.9390968,19.6774194 L41.9370323,19.6774194 Z" id="Combined-Shape"></path>
            </g>
        </g>
    </g>
</svg>