<?xml version="1.0" encoding="UTF-8"?>
<svg width="66px" height="56px" viewBox="0 0 66 56" version="1.1" xmlns="http://www.w3.org/2000/svg" xmlns:xlink="http://www.w3.org/1999/xlink">
    <!-- Generator: Sketch 52.6 (67491) - http://www.bohemiancoding.com/sketch -->
    <title>2305585-add-group-member-people-plus-team</title>
    <desc>Created with Sketch.</desc>
    <g id="Page-1" stroke="none" stroke-width="1" fill="none" fill-rule="evenodd" stroke-linecap="round" stroke-linejoin="round">
        <g id="04-Details-OttoLock" transform="translate(-596.000000, -3808.000000)" stroke="#000000" stroke-width="2">
            <g id="2305585-add-group-member-people-plus-team" transform="translate(597.000000, 3809.000000)">
                <path d="M39.2888889,7.11023622 C39.2888889,11.1141732 36.0296296,18.1181102 32,18.1181102 C27.9703704,18.1181102 24.7111111,11.1259843 24.7111111,7.11023622 C24.8687949,3.21565242 28.0828477,0.139301014 31.9940741,0.139301014 C35.9053005,0.139301014 39.1193532,3.21565242 39.277037,7.11023622 L39.2888889,7.11023622 Z" id="Shape" fill="#000000"></path>
                <path d="M16.9955556,38.5275591 C16.9955557,30.2693801 23.7132743,23.5748035 32,23.5748035 C40.2867257,23.5748035 47.0044443,30.2693801 47.0044444,38.5275591" id="Shape"></path>
                <path d="M57.4696296,11.9173228 C57.4696296,15.3070866 54.7081481,21.3661417 51.3066667,21.3661417 C47.9051852,21.3661417 45.1437037,15.2598425 45.1437037,11.9173228 C45.1437037,8.52207623 47.9056093,5.76968504 51.3125926,5.76968504 C54.7195758,5.76968504 57.4814815,8.52207623 57.4814815,11.9173228 L57.4696296,11.9173228 Z" id="Shape" fill="#000000"></path>
                <path d="M43.6266667,28.6062992 C47.4722564,25.7053763 52.6344956,25.2245502 56.9529107,27.3650537 C61.2713258,29.5055572 64.0011843,33.8982498 64.0000004,38.7047244" id="Shape"></path>
                <path d="M6.53037037,11.9173228 C6.53037037,15.3070866 9.29185185,21.3661417 12.6933333,21.3661417 C16.0948148,21.3661417 18.8562963,15.2598425 18.8562963,11.9173228 C18.8562963,8.52207623 16.0943907,5.76968504 12.6874074,5.76968504 C9.28042415,5.76968504 6.51851852,8.52207623 6.51851852,11.9173228 L6.53037037,11.9173228 Z" id="Shape" fill="#000000"></path>
                <path d="M20.3733333,28.6062992 C16.5277436,25.7053763 11.3655044,25.2245502 7.0470893,27.3650537 C2.72867424,29.5055572 -0.0011842794,33.8982498 -3.8517154e-07,38.7047244" id="Shape"></path>
                <path d="M17.5881481,42.8503937 C19.4474935,49.249085 25.327245,53.6525173 32.0118519,53.6525173 C38.6964587,53.6525173 44.5762102,49.249085 46.4355556,42.8503937" id="Shape"></path>
                <path d="M32,32.2204724 L32,46.3937008" id="Shape"></path>
                <path d="M24.8888889,39.3070866 L39.1111111,39.3070866" id="Shape"></path>
            </g>
        </g>
    </g>
</svg>