<?xml version="1.0" encoding="UTF-8"?>
<svg width="43px" height="43px" viewBox="0 0 43 43" version="1.1" xmlns="http://www.w3.org/2000/svg" xmlns:xlink="http://www.w3.org/1999/xlink">
    <!-- Generator: Sketch 53.2 (72643) - https://sketchapp.com -->
    <title>wranch</title>
    <desc>Created with Sketch.</desc>
    <g id="Page-1" stroke="none" stroke-width="1" fill="none" fill-rule="evenodd">
        <g id="04-Details-OttoAccess" transform="translate(-168.000000, -5347.000000)" fill="#EE1D36" fill-rule="nonzero">
            <g id="wranch" transform="translate(168.000000, 5347.000000)">
                <path d="M19.2303286,16.6367538 L24.7553183,11.1333757 C24.1215471,8.12259531 25.022489,4.95359077 27.2554818,2.72059802 C29.606889,0.369190731 32.9973738,-0.506530392 36.1512696,0.335719778 C36.912671,0.539052598 37.168071,1.49062225 36.6108114,2.04788183 L33.0438907,5.61480251 C31.8450719,6.81362127 31.8450719,8.7572905 33.0438907,9.95610928 C34.2427095,11.1549281 36.1863787,11.1549281 37.3851975,9.95610928 L40.9521182,6.38918857 C41.5093777,5.83192899 42.4609474,6.08732894 42.6642802,6.84873044 C43.5065304,10.0026262 42.6308092,13.393111 40.279402,15.7445182 C38.0651479,17.9587723 34.9298001,18.8641025 31.9390899,18.2595954 L27.6638385,22.5406447 C29.8641124,24.736307 36.1926262,31.0430758 39.0881704,33.9521961 C40.2457107,34.9169138 40.9302326,36.3452879 40.9302326,37.8837209 C40.9302326,40.7093638 38.6395963,43 35.8139535,43 C34.5231471,43 33.3047295,42.5187625 32.3602571,41.6583614 C32.2455557,41.5512652 32.1712409,41.4780589 32.1159229,41.4188728 C29.1723458,38.4825176 22.68251,31.9785266 20.4606782,29.7535736 L8.87322859,41.3567375 C7.91157768,42.3966 6.56109551,43 5.11627907,43 C2.29063616,43 0,40.7093638 0,37.8837209 C0,36.3322284 0.696239792,34.8930609 1.87057611,33.928602 L14.5874897,21.2614319 L6.57763879,13.2491413 L3.75184904,12.1604157 C3.51616969,12.0696127 3.32239877,11.8948556 3.20782316,11.6697726 L0.134698193,5.63263938 C-0.0651321767,5.24007397 0.00869652837,4.76367736 0.317974043,4.45001002 L2.36784319,2.37104541 C2.67952861,2.05493598 3.1594868,1.97585746 3.55610947,2.17526515 L9.66893676,5.24857594 C9.91465691,5.37211524 10.1003018,5.58936867 10.1840105,5.85134809 L11.109823,8.74882234 L19.2303286,16.6367538 Z M16.0558372,19.8355814 L17.7710722,18.072351 L9.50012687,10.0382886 C9.37947673,9.92109388 9.28957654,9.77596489 9.23838264,9.61574554 L8.36547575,6.88384739 L3.30221957,4.33822343 L2.29314154,5.36162413 L4.85367642,10.3917776 L7.51581907,11.417453 C7.64928059,11.4688734 7.77048033,11.547701 7.87159857,11.6488501 L16.0558372,19.8355814 Z M21.9100713,28.3087684 C24.1366939,30.5385275 30.6241097,37.0401533 33.582301,39.9916258 C33.6269824,40.038908 33.6715361,40.082797 33.747643,40.1539642 C34.3095443,40.6657858 35.037962,40.9534884 35.8139535,40.9534884 C37.5093392,40.9534884 38.8837209,39.5791066 38.8837209,37.8837209 C38.8837209,36.9479376 38.4637307,36.0831173 37.7517946,35.5027478 L37.6730463,35.4314369 C34.7966958,32.5411756 28.4223784,26.1887852 26.2125767,23.9835914 L21.9100713,28.3087684 Z M28.702584,4.16770026 C26.8504751,6.01980922 26.1766319,8.69772821 26.8714795,11.1747686 C26.971566,11.5315641 26.8709285,11.9145905 26.6083847,12.1761073 L3.27814627,35.4150872 C2.47395602,36.0681358 2.04651163,36.9397635 2.04651163,37.8837209 C2.04651163,39.5791066 3.42089333,40.9534884 5.11627907,40.9534884 C5.98455951,40.9534884 6.79249734,40.592499 7.39791953,39.938946 L30.8941167,16.4098181 C31.1533635,16.150208 31.531759,16.0492613 31.8858689,16.1452429 C34.3475605,16.8124852 36.9960405,16.1336752 38.8322998,14.297416 C40.1877154,12.9420004 40.9126639,11.1439369 40.9307802,9.30473103 L38.8322998,11.4032115 C36.8342685,13.4012428 33.5948197,13.4012428 31.5967885,11.4032115 C29.5987572,9.40518027 29.5987572,6.16573152 31.5967885,4.16770026 L33.695269,2.0692198 C31.8560631,2.08733615 30.0579996,2.81228468 28.702584,4.16770026 Z" id="Combined-Shape"></path>
            </g>
        </g>
    </g>
</svg>