<?xml version="1.0" encoding="UTF-8"?>
<svg width="209px" height="36px" viewBox="0 0 209 36" version="1.1" xmlns="http://www.w3.org/2000/svg" xmlns:xlink="http://www.w3.org/1999/xlink">
    <!-- Generator: Sketch 53.2 (72643) - https://sketchapp.com -->
    <title>OttoAccess-Logo</title>
    <desc>Created with Sketch.</desc>
    <g id="Page-1" stroke="none" stroke-width="1" fill="none" fill-rule="evenodd">
        <g id="04-Details-OttoAccess" transform="translate(-616.000000, -3477.000000)" fill="#EE1D36">
            <g id="OttoAccess-Logo" transform="translate(616.000000, 3477.000000)">
                <path d="M40,8.44 L45.96,7.48 L45.96,13.68 L53.12,13.68 L53.12,18.64 L45.96,18.64 L45.96,26.04 C45.96,27.2933396 46.1799978,28.2933296 46.62,29.04 C47.0600022,29.7866704 47.94666,30.16 49.28,30.16 C49.9200032,30.16 50.5799966,30.1000006 51.26,29.98 C51.9400034,29.8599994 52.5599972,29.6933344 53.12,29.48 L53.96,34.12 C53.2399964,34.4133348 52.4400044,34.6666656 51.56,34.88 C50.6799956,35.0933344 49.6000064,35.2 48.32,35.2 C46.6933252,35.2 45.346672,34.9800022 44.28,34.54 C43.213328,34.0999978 42.3600032,33.4866706 41.72,32.7 C41.0799968,31.9133294 40.6333346,30.9600056 40.38,29.84 C40.1266654,28.7199944 40,27.4800068 40,26.12 L40,8.44 Z M57.0933333,8.44 L63.0533333,7.48 L63.0533333,13.68 L70.2133333,13.68 L70.2133333,18.64 L63.0533333,18.64 L63.0533333,26.04 C63.0533333,27.2933396 63.2733311,28.2933296 63.7133333,29.04 C64.1533355,29.7866704 65.0399933,30.16 66.3733333,30.16 C67.0133365,30.16 67.6733299,30.1000006 68.3533333,29.98 C69.0333367,29.8599994 69.6533305,29.6933344 70.2133333,29.48 L71.0533333,34.12 C70.3333297,34.4133348 69.5333377,34.6666656 68.6533333,34.88 C67.7733289,35.0933344 66.6933397,35.2 65.4133333,35.2 C63.7866585,35.2 62.4400053,34.9800022 61.3733333,34.54 C60.3066613,34.0999978 59.4533365,33.4866706 58.8133333,32.7 C58.1733301,31.9133294 57.7266679,30.9600056 57.4733333,29.84 C57.2199987,28.7199944 57.0933333,27.4800068 57.0933333,26.12 L57.0933333,8.44 Z M93.2666666,24.16 C93.2666666,25.8133416 93.026669,27.3266598 92.5466666,28.7 C92.0666642,30.0733402 91.3733378,31.2466618 90.4666666,32.22 C89.5599954,33.1933382 88.4733396,33.946664 87.2066666,34.48 C85.9399936,35.013336 84.5200078,35.28 82.9466666,35.28 C81.3999922,35.28 79.9933396,35.013336 78.7266666,34.48 C77.4599936,33.946664 76.3733378,33.1933382 75.4666666,32.22 C74.5599954,31.2466618 73.8533358,30.0733402 73.3466666,28.7 C72.8399974,27.3266598 72.5866666,25.8133416 72.5866666,24.16 C72.5866666,22.5066584 72.846664,21.0000068 73.3666666,19.64 C73.8866692,18.2799932 74.606662,17.1200048 75.5266666,16.16 C76.4466712,15.1999952 77.5399936,14.453336 78.8066666,13.92 C80.0733396,13.386664 81.4533258,13.12 82.9466666,13.12 C84.4666742,13.12 85.8599936,13.386664 87.1266666,13.92 C88.3933396,14.453336 89.4799954,15.1999952 90.3866666,16.16 C91.2933378,17.1200048 91.9999974,18.2799932 92.5066666,19.64 C93.0133358,21.0000068 93.2666666,22.5066584 93.2666666,24.16 Z M87.1866666,24.16 C87.1866666,22.3199908 86.8200036,20.8733386 86.0866666,19.82 C85.3533296,18.7666614 84.3066734,18.24 82.9466666,18.24 C81.5866598,18.24 80.533337,18.7666614 79.7866666,19.82 C79.0399962,20.8733386 78.6666666,22.3199908 78.6666666,24.16 C78.6666666,26.0000092 79.0399962,27.4599946 79.7866666,28.54 C80.533337,29.6200054 81.5866598,30.16 82.9466666,30.16 C84.3066734,30.16 85.3533296,29.6200054 86.0866666,28.54 C86.8200036,27.4599946 87.1866666,26.0000092 87.1866666,24.16 Z M116.64,34.72 C116.133331,33.3599932 115.653336,32.0533396 115.2,30.8 C114.746664,29.5466604 114.306669,28.320006 113.88,27.12 L100.4,27.12 C99.9466643,28.320006 99.4933355,29.5466604 99.0399999,30.8 C98.5866643,32.0533396 98.1200023,33.3599932 97.6399999,34.72 L94.7999999,34.72 C95.8666719,31.8399856 96.8666619,29.1533458 97.7999999,26.66 C98.7333379,24.1666542 99.6466621,21.8066778 100.54,19.58 C101.433338,17.3533222 102.319996,15.2133436 103.2,13.16 C104.080004,11.1066564 105.013328,9.0533436 106,7 L108.4,7 C109.386672,9.0533436 110.319996,11.1066564 111.2,13.16 C112.080004,15.2133436 112.966662,17.3533222 113.86,19.58 C114.753338,21.8066778 115.666662,24.1666542 116.6,26.66 C117.533338,29.1533458 118.546661,31.8399856 119.64,34.72 L116.64,34.72 Z M107.12,10.12 C106.106662,12.4133448 105.126671,14.7466548 104.18,17.12 C103.233329,19.4933452 102.253338,22.0533196 101.24,24.8 L113.04,24.8 C112.026662,22.0533196 111.040005,19.4933452 110.08,17.12 C109.119995,14.7466548 108.133338,12.4133448 107.12,10.12 Z M131.373333,35.16 C129.773325,35.16 128.360006,34.9066692 127.133333,34.4 C125.90666,33.8933308 124.886671,33.1666714 124.073333,32.22 C123.259996,31.2733286 122.640002,30.1400066 122.213333,28.82 C121.786664,27.4999934 121.573333,26.040008 121.573333,24.44 C121.573333,22.8133252 121.793331,21.33334 122.233333,20 C122.673335,18.66666 123.306662,17.5200048 124.133333,16.56 C124.960004,15.5999952 125.959994,14.8600026 127.133333,14.34 C128.306672,13.8199974 129.626659,13.56 131.093333,13.56 C132.213339,13.56 133.259995,13.6533324 134.233333,13.84 C135.206671,14.0266676 135.959997,14.2666652 136.493333,14.56 L135.813333,16.8 C135.279997,16.533332 134.680003,16.3200008 134.013333,16.16 C133.346663,15.9999992 132.453339,15.92 131.333333,15.92 C129.039988,15.92 127.300006,16.6599926 126.113333,18.14 C124.926661,19.6200074 124.333333,21.7199864 124.333333,24.44 C124.333333,25.6666728 124.466665,26.7933282 124.733333,27.82 C125.000001,28.8466718 125.43333,29.726663 126.033333,30.46 C126.633336,31.193337 127.406662,31.7666646 128.353333,32.18 C129.300005,32.5933354 130.453326,32.8 131.813333,32.8 C132.933339,32.8 133.873329,32.6733346 134.633333,32.42 C135.393337,32.1666654 135.946665,31.9466676 136.293333,31.76 L136.853333,34 C136.373331,34.266668 135.620005,34.5266654 134.593333,34.78 C133.566661,35.0333346 132.493339,35.16 131.373333,35.16 Z M149.106667,35.16 C147.506659,35.16 146.093339,34.9066692 144.866667,34.4 C143.639994,33.8933308 142.620004,33.1666714 141.806667,32.22 C140.993329,31.2733286 140.373335,30.1400066 139.946667,28.82 C139.519998,27.4999934 139.306667,26.040008 139.306667,24.44 C139.306667,22.8133252 139.526664,21.33334 139.966667,20 C140.406669,18.66666 141.039996,17.5200048 141.866667,16.56 C142.693337,15.5999952 143.693327,14.8600026 144.866667,14.34 C146.040006,13.8199974 147.359993,13.56 148.826667,13.56 C149.946672,13.56 150.993328,13.6533324 151.966667,13.84 C152.940005,14.0266676 153.693331,14.2666652 154.226667,14.56 L153.546667,16.8 C153.013331,16.533332 152.413337,16.3200008 151.746667,16.16 C151.079997,15.9999992 150.186672,15.92 149.066667,15.92 C146.773322,15.92 145.033339,16.6599926 143.846667,18.14 C142.659994,19.6200074 142.066667,21.7199864 142.066667,24.44 C142.066667,25.6666728 142.199999,26.7933282 142.466667,27.82 C142.733335,28.8466718 143.166664,29.726663 143.766667,30.46 C144.36667,31.193337 145.139995,31.7666646 146.086667,32.18 C147.033338,32.5933354 148.18666,32.8 149.546667,32.8 C150.666672,32.8 151.606663,32.6733346 152.366667,32.42 C153.12667,32.1666654 153.679998,31.9466676 154.026667,31.76 L154.586667,34 C154.106664,34.266668 153.353338,34.5266654 152.326667,34.78 C151.299995,35.0333346 150.226672,35.16 149.106667,35.16 Z M157.04,24.36 C157.04,22.5466576 157.299997,20.9666734 157.82,19.62 C158.340002,18.2733266 159.019996,17.1466712 159.86,16.24 C160.700004,15.3333288 161.659994,14.6600022 162.74,14.22 C163.820005,13.7799978 164.933327,13.56 166.08,13.56 C168.613346,13.56 170.633326,14.3866584 172.14,16.04 C173.646674,17.6933416 174.4,20.2399828 174.4,23.68 C174.4,23.8933344 174.393333,24.1066656 174.38,24.32 C174.366666,24.5333344 174.346667,24.7333324 174.32,24.92 L159.8,24.92 C159.88,27.453346 160.506661,29.3999932 161.68,30.76 C162.853339,32.1200068 164.719987,32.8 167.28,32.8 C168.69334,32.8 169.813329,32.666668 170.64,32.4 C171.466671,32.133332 172.066665,31.9066676 172.44,31.72 L172.92,33.96 C172.546665,34.1733344 171.846672,34.4266652 170.82,34.72 C169.793328,35.0133348 168.586673,35.16 167.2,35.16 C165.386657,35.16 163.840006,34.893336 162.56,34.36 C161.279993,33.826664 160.226671,33.0800048 159.4,32.12 C158.573329,31.1599952 157.973335,30.0200066 157.6,28.7 C157.226665,27.3799934 157.04,25.9333412 157.04,24.36 Z M171.72,22.72 C171.666666,20.5599892 171.160005,18.880006 170.2,17.68 C169.239995,16.479994 167.880009,15.88 166.12,15.88 C165.186662,15.88 164.353337,16.0666648 163.62,16.44 C162.886663,16.8133352 162.246669,17.3133302 161.7,17.94 C161.15333,18.5666698 160.726668,19.2933292 160.42,20.12 C160.113332,20.9466708 159.933333,21.8133288 159.88,22.72 L171.72,22.72 Z M183.773333,32.88 C185.266674,32.88 186.499995,32.6333358 187.473333,32.14 C188.446671,31.6466642 188.933333,30.8133392 188.933333,29.64 C188.933333,29.0799972 188.846667,28.600002 188.673333,28.2 C188.499999,27.799998 188.213335,27.4400016 187.813333,27.12 C187.413331,26.7999984 186.88667,26.4933348 186.233333,26.2 C185.579997,25.9066652 184.773338,25.560002 183.813333,25.16 C183.039996,24.8399984 182.30667,24.513335 181.613333,24.18 C180.919996,23.846665 180.306669,23.4600022 179.773333,23.02 C179.239997,22.5799978 178.813335,22.0533364 178.493333,21.44 C178.173332,20.8266636 178.013333,20.0800044 178.013333,19.2 C178.013333,17.5199916 178.64666,16.1600052 179.913333,15.12 C181.180006,14.0799948 182.919989,13.56 185.133333,13.56 C186.546674,13.56 187.713329,13.6799988 188.633333,13.92 C189.553338,14.1600012 190.199998,14.3733324 190.573333,14.56 L189.973333,16.88 C189.653332,16.7199992 189.113337,16.506668 188.353333,16.24 C187.593329,15.973332 186.480007,15.84 185.013333,15.84 C184.426664,15.84 183.873336,15.8999994 183.353333,16.02 C182.833331,16.1400006 182.373335,16.3266654 181.973333,16.58 C181.573331,16.8333346 181.253334,17.1533314 181.013333,17.54 C180.773332,17.9266686 180.653333,18.3999972 180.653333,18.96 C180.653333,19.5200028 180.759999,19.999998 180.973333,20.4 C181.186668,20.800002 181.499998,21.1533318 181.913333,21.46 C182.326669,21.7666682 182.83333,22.053332 183.433333,22.32 C184.033336,22.586668 184.719996,22.8799984 185.493333,23.2 C186.293337,23.5200016 187.059996,23.846665 187.793333,24.18 C188.52667,24.513335 189.17333,24.913331 189.733333,25.38 C190.293336,25.846669 190.746665,26.4066634 191.093333,27.06 C191.440002,27.7133366 191.613333,28.5333284 191.613333,29.52 C191.613333,31.386676 190.91334,32.7999952 189.513333,33.76 C188.113326,34.7200048 186.200012,35.2 183.773333,35.2 C181.959991,35.2 180.573338,35.0466682 179.613333,34.74 C178.653328,34.4333318 178.013335,34.2000008 177.693333,34.04 L178.373333,31.68 C178.453334,31.7333336 178.626665,31.8199994 178.893333,31.94 C179.160001,32.0600006 179.519998,32.1933326 179.973333,32.34 C180.426669,32.4866674 180.966663,32.6133328 181.593333,32.72 C182.220003,32.8266672 182.946662,32.88 183.773333,32.88 Z M200.226666,32.88 C201.720007,32.88 202.953328,32.6333358 203.926666,32.14 C204.900005,31.6466642 205.386666,30.8133392 205.386666,29.64 C205.386666,29.0799972 205.300001,28.600002 205.126666,28.2 C204.953332,27.799998 204.666668,27.4400016 204.266666,27.12 C203.866664,26.7999984 203.340003,26.4933348 202.686666,26.2 C202.03333,25.9066652 201.226671,25.560002 200.266666,25.16 C199.493329,24.8399984 198.760003,24.513335 198.066666,24.18 C197.37333,23.846665 196.760002,23.4600022 196.226666,23.02 C195.69333,22.5799978 195.266668,22.0533364 194.946666,21.44 C194.626665,20.8266636 194.466666,20.0800044 194.466666,19.2 C194.466666,17.5199916 195.099993,16.1600052 196.366666,15.12 C197.633339,14.0799948 199.373322,13.56 201.586666,13.56 C203.000007,13.56 204.166662,13.6799988 205.086666,13.92 C206.006671,14.1600012 206.653331,14.3733324 207.026666,14.56 L206.426666,16.88 C206.106665,16.7199992 205.56667,16.506668 204.806666,16.24 C204.046663,15.973332 202.93334,15.84 201.466666,15.84 C200.879997,15.84 200.326669,15.8999994 199.806666,16.02 C199.286664,16.1400006 198.826668,16.3266654 198.426666,16.58 C198.026664,16.8333346 197.706668,17.1533314 197.466666,17.54 C197.226665,17.9266686 197.106666,18.3999972 197.106666,18.96 C197.106666,19.5200028 197.213332,19.999998 197.426666,20.4 C197.640001,20.800002 197.953331,21.1533318 198.366666,21.46 C198.780002,21.7666682 199.286663,22.053332 199.886666,22.32 C200.486669,22.586668 201.173329,22.8799984 201.946666,23.2 C202.74667,23.5200016 203.513329,23.846665 204.246666,24.18 C204.980003,24.513335 205.626664,24.913331 206.186666,25.38 C206.746669,25.846669 207.199998,26.4066634 207.546666,27.06 C207.893335,27.7133366 208.066666,28.5333284 208.066666,29.52 C208.066666,31.386676 207.366673,32.7999952 205.966666,33.76 C204.566659,34.7200048 202.653345,35.2 200.226666,35.2 C198.413324,35.2 197.026671,35.0466682 196.066666,34.74 C195.106662,34.4333318 194.466668,34.2000008 194.146666,34.04 L194.826666,31.68 C194.906667,31.7333336 195.079998,31.8199994 195.346666,31.94 C195.613334,32.0600006 195.973331,32.1933326 196.426666,32.34 C196.880002,32.4866674 197.419997,32.6133328 198.046666,32.72 C198.673336,32.8266672 199.399996,32.88 200.226666,32.88 Z" id="OttoAccess" fill-rule="nonzero"></path>
                <path d="M3.97699536,6.3916246 L11.9570842,14.3717134 C11.434587,15.2955221 11.1363636,16.3629341 11.1363636,17.5 C11.1363636,21.0145393 13.9854607,23.8636364 17.5,23.8636364 C18.6370659,23.8636364 19.7044779,23.565413 20.6282866,23.0429158 L28.6083754,31.0230046 C25.5867342,33.5079975 21.717605,35 17.5,35 C7.83501688,35 8.8817842e-14,27.1649831 8.8817842e-14,17.5 C8.8817842e-14,13.282395 1.49200249,9.4132658 3.97699536,6.3916246 Z M6.83458624,3.62450245 C9.78721097,1.35158436 13.4857658,0 17.5,0 C27.1649831,0 35,7.83501688 35,17.5 C35,21.5142342 33.6484156,25.212789 31.3754975,28.1654138 L23.3100173,20.0999335 C23.6657755,19.3061442 23.8636364,18.4261785 23.8636364,17.5 C23.8636364,13.9854607 21.0145393,11.1363636 17.5,11.1363636 C16.5738215,11.1363636 15.6938558,11.3342245 14.9000665,11.6899827 L6.83458624,3.62450245 Z" id="Combined-Shape"></path>
            </g>
        </g>
    </g>
</svg>