<?xml version="1.0" encoding="UTF-8"?>
<svg width="44px" height="44px" viewBox="0 0 44 44" version="1.1" xmlns="http://www.w3.org/2000/svg" xmlns:xlink="http://www.w3.org/1999/xlink">
    <!-- Generator: Sketch 53.2 (72643) - https://sketchapp.com -->
    <title>earth-globe-planet-world-universe</title>
    <desc>Created with Sketch.</desc>
    <g id="Page-1" stroke="none" stroke-width="1" fill="none" fill-rule="evenodd">
        <g id="04-Details-OttoAccess" transform="translate(-595.000000, -2770.000000)" fill="#EE1D36" fill-rule="nonzero">
            <g id="earth-globe-planet-world-universe" transform="translate(595.000000, 2770.000000)">
                <path d="M43.2,22 C43.2097939,12.9678115 37.4900908,4.92339229 28.9557004,1.96624746 C20.42131,-0.990897376 10.9506299,1.79009219 5.37,8.892 C5.32537441,8.94241516 5.28522281,8.99661982 5.25,9.054 C-0.148285645,15.9627749 -0.719164599,25.4875542 3.81526804,32.9916584 C8.34970067,40.4957625 17.0472765,44.4199821 25.674,42.854 L25.674,42.854 C25.7532568,42.8536347 25.8322922,42.8455972 25.91,42.83 C25.93,42.83 25.944,42.812 25.964,42.808 C35.9520784,40.8964119 43.181018,32.1693421 43.2,22 L43.2,22 Z M40.762,22.768 C39.9160677,22.6954408 39.0667885,22.6694016 38.218,22.69 C37.676,22.69 37.132,22.702 36.586,22.69 C34.556295,22.7036112 32.6903914,21.577888 31.756,19.776 C30.7282001,17.6061698 30.9450992,15.0514945 32.324,13.086 C33.3015383,11.657216 34.5505824,10.434675 36,9.488 C39.0906386,12.9225468 40.800503,17.3795932 40.8,22 C40.8,22.26 40.772,22.512 40.762,22.768 Z M3.2,22 C3.20166975,17.9864184 4.4962789,14.0801492 6.892,10.86 C8.43481819,10.7302879 9.98846346,10.852553 11.492,11.222 C13.8424931,11.7672219 15.757759,13.4642452 16.582,15.732 C17.0356572,17.6320003 16.6007233,19.6351984 15.4,21.176 C15.08,21.636 14.722,22.092 14.36,22.548 C12.694,24.656 10.624,27.278 12.472,30.748 C13.8316973,32.8346658 16.0119225,34.2474517 18.472,34.636 C18.944,34.774 19.418,34.914 19.872,35.07 C22.226383,36.0040102 23.8897779,38.1404737 24.218,40.652 C18.8797342,41.3162932 13.513844,39.6504794 9.4902872,36.0798551 C5.46673037,32.5092308 3.17492916,27.3793809 3.2,22 L3.2,22 Z M26.586,40.21 C26.0714354,36.8587394 23.8066261,34.0372598 20.646,32.81 C20.15,32.642 19.646,32.492 19.14,32.344 C17.3079225,32.1050497 15.6568726,31.1173163 14.58,29.616 C13.526,27.636 14.524,26.206 16.238,24.036 C16.638,23.54 17.02,23.036 17.368,22.54 C18.9718765,20.4167053 19.5332002,17.6835589 18.896,15.1 C17.8320645,12.0108364 15.2700314,9.674865 12.096,8.9 C11.0855003,8.64221676 10.0516259,8.48676708 9.01,8.436 C15.9807992,1.72176083 26.9216515,1.4320633 34.238,7.768 C32.6925523,8.84692914 31.3606828,10.2032118 30.31,11.768 C28.4558424,14.4558942 28.1892642,17.9328677 29.612,20.872 C30.9421497,23.4433626 33.587049,25.0664915 36.482,25.088 C37.064,25.11 37.652,25.104 38.238,25.098 C38.9946015,25.07785 39.7517388,25.0992154 40.506,25.162 C39.2430316,32.4859025 33.789516,38.3813409 26.586,40.21 Z" id="Shape"></path>
            </g>
        </g>
    </g>
</svg>