<?xml version="1.0" encoding="UTF-8"?>
<svg width="28px" height="44px" viewBox="0 0 28 44" version="1.1" xmlns="http://www.w3.org/2000/svg" xmlns:xlink="http://www.w3.org/1999/xlink">
    <!-- Generator: Sketch 53.2 (72643) - https://sketchapp.com -->
    <title>smart-phone-cell-phone-mobile-touch-screen</title>
    <desc>Created with Sketch.</desc>
    <g id="Page-1" stroke="none" stroke-width="1" fill="none" fill-rule="evenodd">
        <g id="04-Details-OttoAccess" transform="translate(-167.000000, -3900.000000)" fill="#EE1D36" fill-rule="nonzero">
            <g id="smart-phone-cell-phone-mobile-touch-screen" transform="translate(167.000000, 3900.000000)">
                <path d="M22.2962963,0.306976744 L5.7037037,0.306976744 C2.72948148,0.306976744 0.311111111,2.6932093 0.311111111,5.62790698 L0.311111111,38.372093 C0.311111111,41.3067907 2.73155556,43.6930233 5.7037037,43.6930233 L22.2962963,43.6930233 C25.2705185,43.6930233 27.6888889,41.3047442 27.6888889,38.372093 L27.6888889,5.62790698 C27.6888889,2.6932093 25.2705185,0.306976744 22.2962963,0.306976744 Z M25.2,38.372093 C25.2,39.952 23.8974815,41.2372093 22.2962963,41.2372093 L5.7037037,41.2372093 C4.10251852,41.2372093 2.8,39.952 2.8,38.372093 L2.8,5.62790698 C2.8,4.048 4.10251852,2.7627907 5.7037037,2.7627907 L22.2962963,2.7627907 C23.8974815,2.7627907 25.2,4.048 25.2,5.62790698 L25.2,38.372093 Z M17.3185185,6.65116279 C17.3185185,7.33060465 16.7605926,7.87906977 16.0740741,7.87906977 L11.9259259,7.87906977 C11.2373333,7.87906977 10.6814815,7.32855814 10.6814815,6.65116279 C10.6814815,5.97376744 11.2394074,5.42325581 11.9259259,5.42325581 L16.0740741,5.42325581 C16.7626667,5.42325581 17.3185185,5.97172093 17.3185185,6.65116279 Z M16.0740741,36.6775814 C16.0740741,37.8072558 15.1448889,38.724093 14,38.724093 C12.8551111,38.724093 11.9259259,37.8072558 11.9259259,36.6775814 C11.9259259,35.547907 12.8551111,34.6310698 14,34.6310698 C15.1448889,34.6310698 16.0740741,35.547907 16.0740741,36.6775814 Z" id="Shape"></path>
            </g>
        </g>
    </g>
</svg>